<svg width="16" height="16" viewBox="0 0 16 16" fill="none" xmlns="http://www.w3.org/2000/svg">
<path d="M14.8773 14.1935H8.10313C7.54829 14.1935 7.09668 13.7419 7.09668 13.187V2.55479C7.09668 1.99995 7.54829 1.54834 8.10313 1.54834H14.8773C15.4322 1.54834 15.8838 1.99995 15.8838 2.55479V13.2C15.8709 13.7419 15.4193 14.1935 14.8773 14.1935ZM8.10313 1.8064C7.69023 1.8064 7.35474 2.14189 7.35474 2.55479V13.2C7.35474 13.6129 7.69023 13.9483 8.10313 13.9483H14.8773C15.2902 13.9483 15.6257 13.6129 15.6257 13.2V2.55479C15.6257 2.14189 15.2902 1.8064 14.8773 1.8064H8.10313Z" fill="#0056B3"/>
<path d="M9.29032 16L0 14.1935V1.54839L9.29032 0V16Z" fill="#0056B3"/>
<path d="M14.0639 3.22583H11.6123V4.38712H14.0639V3.22583Z" fill="#0056B3"/>
<path d="M14.0639 5.16138H11.6123V6.32267H14.0639V5.16138Z" fill="#0056B3"/>
<path d="M14.0639 7.09692H11.6123V8.25821H14.0639V7.09692Z" fill="#0056B3"/>
<path d="M14.0639 9.16138H11.6123V10.3227H14.0639V9.16138Z" fill="#0056B3"/>
<path d="M14.0639 11.2258H11.6123V12.3871H14.0639V11.2258Z" fill="#0056B3"/>
<path d="M10.8394 3.22583H9.29102V4.38712H10.8394V3.22583Z" fill="#0056B3"/>
<path d="M10.8394 5.16138H9.29102V6.32267H10.8394V5.16138Z" fill="#0056B3"/>
<path d="M10.8394 7.09692H9.29102V8.25821H10.8394V7.09692Z" fill="#0056B3"/>
<path d="M10.8394 9.16138H9.29102V10.3227H10.8394V9.16138Z" fill="#0056B3"/>
<path d="M10.8394 11.2258H9.29102V12.3871H10.8394V11.2258Z" fill="#0056B3"/>
<path d="M3.49454 5.12553L2.57129 5.58716L5.53723 11.519L6.46049 11.0574L3.49454 5.12553Z" fill="white"/>
<path d="M5.27745 5.12942L2.56543 10.8123L3.49704 11.2568L6.20906 5.57401L5.27745 5.12942Z" fill="white"/>
</svg>
