<svg width="16" height="16" viewBox="0 0 16 16" fill="none" xmlns="http://www.w3.org/2000/svg">
<path d="M15.9998 11.8561C15.9233 12.1577 15.8081 12.4373 15.5634 12.6472C15.3692 12.8134 15.1514 12.9237 14.8694 12.9561C14.8694 12.883 14.8694 12.8183 14.8694 12.7541C14.8694 10.661 14.8704 8.56847 14.8689 6.47542C14.868 5.52894 14.2957 4.79236 13.4026 4.59473C13.2418 4.55893 13.0721 4.5501 12.9068 4.54961C11.1576 4.54667 9.4083 4.54667 7.65903 4.5501C7.55016 4.5501 7.4766 4.52117 7.40696 4.43583C7.14361 4.11315 6.86653 3.80174 6.60711 3.47612C6.40212 3.21914 6.14662 3.10978 5.82099 3.11125C4.51946 3.11714 3.21793 3.11371 1.9164 3.11371C1.85461 3.11371 1.79331 3.11371 1.71484 3.11371C1.75751 2.76699 1.9164 2.50463 2.16749 2.29522C2.41759 2.08631 2.71183 2.00049 3.03501 2.00098C4.54496 2.00196 6.05443 2.00245 7.56438 2C7.69041 2 7.77819 2.04708 7.85764 2.1432C8.18278 2.5365 8.51625 2.92245 8.83894 3.31771C8.91348 3.40893 8.99096 3.43786 9.10474 3.43737C10.932 3.43443 12.7592 3.43688 14.587 3.43394C14.9656 3.43345 15.3059 3.52565 15.5898 3.78801C15.8213 4.00183 15.9331 4.27694 16.0003 4.57609C15.9998 7.00261 15.9998 9.42962 15.9998 11.8561Z" fill="#0056B3"/>
<path d="M7.15606 14.6495C5.24005 14.6495 3.32453 14.6475 1.40853 14.6509C0.949019 14.6519 0.56209 14.5117 0.273243 14.1419C0.0859084 13.9026 0.00253974 13.6275 0.00204933 13.3283C0.000578121 10.5482 -0.0023643 7.76813 0.00352054 4.98803C0.00499175 4.23182 0.563071 3.67669 1.32074 3.67276C2.841 3.66492 4.36125 3.66786 5.8815 3.67669C5.97418 3.67718 6.0909 3.74387 6.15465 3.81645C6.48862 4.19504 6.81179 4.58344 7.13154 4.9738C7.21098 5.0709 7.2919 5.11063 7.4199 5.11014C9.25744 5.10572 11.0955 5.10719 12.933 5.1067C13.4916 5.1067 13.928 5.32837 14.1713 5.84133C14.2576 6.02278 14.3052 6.24052 14.3061 6.44207C14.3155 8.73275 14.312 11.0234 14.312 13.3141C14.312 14.0605 13.752 14.6583 12.9188 14.6529C10.9979 14.6411 9.07697 14.6495 7.15606 14.6495Z" fill="#0056B3"/>
</svg>
