<svg width="168" height="54" viewBox="0 0 168 54" fill="none" xmlns="http://www.w3.org/2000/svg">
<path d="M16.0851 23.5383C20.0491 25.0375 22.8189 28.3917 22.8189 32.305H0C0 28.3155 2.89683 24.885 6.98798 23.4366V30.2467H8.58886V20.8701H14.4334V30.2467H16.1867L16.0851 23.5383Z" fill="#FFC629"/>
<path d="M33.0613 16.5249L38.6262 32.2542L44.1658 16.5249H50.0357V38.2003H45.5634V32.2796L46.0208 22.039L40.1763 38.2003H37.1016L31.2571 22.0645L31.7145 32.2796V38.2003H27.2422V16.5249H33.0613Z" fill="#FFC629"/>
<path d="M61.065 38.4801C58.7018 38.4801 56.7705 37.7432 55.2967 36.2948C53.8229 34.8463 53.0605 32.9151 53.0605 30.5011V30.0945C53.0605 28.4682 53.3655 27.0198 54.0007 25.7493C54.636 24.4787 55.5 23.4877 56.6689 22.8016C57.8378 22.1155 59.1337 21.7598 60.5822 21.7598C62.7929 21.7598 64.5208 22.4459 65.7914 23.8435C67.0619 25.241 67.6972 27.1977 67.6972 29.7642V31.5175H57.4312C57.5583 32.5594 57.9903 33.4233 58.7018 34.0586C59.4133 34.6939 60.2772 35.0242 61.3699 35.0242C63.0216 35.0242 64.3175 34.4144 65.2577 33.2201L67.3668 35.5833C66.7316 36.4981 65.8422 37.2095 64.7495 37.7178C63.6569 38.226 62.4117 38.4801 61.065 38.4801ZM60.5567 25.2665C59.6928 25.2665 59.0067 25.546 58.4731 26.1304C57.9394 26.7149 57.6091 27.528 57.4566 28.6207H63.4536V28.2649C63.4282 27.2993 63.1741 26.5624 62.6913 26.0542C62.2084 25.546 61.4715 25.2665 60.5567 25.2665Z" fill="#FFC629"/>
<path d="M75.267 18.1255V22.0896H78.0114V25.2406H75.267V33.2704C75.267 33.8548 75.3687 34.2868 75.5974 34.5409C75.8261 34.795 76.258 34.9221 76.9187 34.9221C77.4015 34.9221 77.8081 34.8967 78.1893 34.8204V38.073C77.3507 38.3271 76.4867 38.4542 75.5719 38.4542C72.5481 38.4542 71.0234 36.9295 70.9472 33.8802V25.1897H68.6094V22.0388H70.9726V18.0747H75.267V18.1255Z" fill="#FFC629"/>
<path d="M89.472 26.1304C88.8876 26.0542 88.3794 26.0033 87.922 26.0033C86.2957 26.0033 85.2284 26.5624 84.7202 27.655V38.2005H80.4258V22.0901H84.4915L84.6186 24.0213C85.4825 22.5475 86.6768 21.8105 88.2015 21.8105C88.6843 21.8105 89.1163 21.8868 89.5483 22.0138L89.472 26.1304Z" fill="#FFC629"/>
<path d="M91.5332 17.9222C91.5332 17.2869 91.7365 16.7533 92.1685 16.3213C92.6005 15.8893 93.1849 15.686 93.9218 15.686C94.6587 15.686 95.2432 15.8893 95.6752 16.3213C96.1072 16.7533 96.3358 17.2615 96.3358 17.9222C96.3358 18.5829 96.1072 19.1165 95.6752 19.5231C95.2432 19.9296 94.6587 20.1583 93.9218 20.1583C93.1849 20.1583 92.6259 19.9551 92.1685 19.5231C91.7111 19.0911 91.5332 18.5575 91.5332 17.9222ZM96.1072 38.2H91.7873V22.0896H96.1072V38.2Z" fill="#FFC629"/>
<path d="M106.348 35.0237C107.135 35.0237 107.796 34.795 108.279 34.363C108.762 33.931 109.041 33.3466 109.041 32.6097H113.082C113.082 33.7023 112.777 34.6934 112.192 35.6082C111.608 36.5229 110.795 37.209 109.778 37.7173C108.762 38.2255 107.644 38.4796 106.398 38.4796C104.086 38.4796 102.282 37.7427 100.961 36.2943C99.6392 34.8458 98.9531 32.813 98.9531 30.2211V29.9415C98.9531 27.4513 99.6138 25.4692 100.935 23.9954C102.257 22.5216 104.061 21.7847 106.373 21.7847C108.381 21.7847 110.007 22.3691 111.227 23.5126C112.446 24.6561 113.056 26.1807 113.082 28.0866H109.041C109.016 27.248 108.762 26.5619 108.279 26.0537C107.796 25.5455 107.135 25.2659 106.322 25.2659C105.331 25.2659 104.569 25.6217 104.061 26.3586C103.552 27.0955 103.298 28.2644 103.298 29.9161V30.3735C103.298 32.0252 103.552 33.2195 104.061 33.9565C104.544 34.668 105.306 35.0237 106.348 35.0237Z" fill="#FFC629"/>
<path d="M120.578 38.2003H116.105V16.5249H120.578V38.2003Z" fill="#FFC629"/>
<path d="M128.38 22.0896L128.507 23.9446C129.651 22.4962 131.201 21.7847 133.132 21.7847C134.835 21.7847 136.105 22.2929 136.944 23.2839C137.782 24.2749 138.214 25.7742 138.214 27.7816V38.2001H133.92V27.9087C133.92 26.9939 133.716 26.3332 133.335 25.9266C132.954 25.5201 132.268 25.3168 131.353 25.3168C130.134 25.3168 129.244 25.825 128.634 26.8668V38.2255H124.34V22.115H128.38V22.0896Z" fill="#FFC629"/>
<path d="M142.684 38.2001V25.2406H140.295V22.0896H142.684V20.7174C142.684 18.9133 143.192 17.5157 144.234 16.4992C145.275 15.4828 146.724 15 148.579 15C149.163 15 149.9 15.1016 150.764 15.3049L150.713 18.6337C150.358 18.5321 149.926 18.5067 149.392 18.5067C147.766 18.5067 146.953 19.269 146.953 20.7937V22.0896H150.154V25.2406H146.953V38.2001H142.684Z" fill="#FFC629"/>
<path d="M151.756 29.9928C151.756 28.392 152.061 26.9689 152.671 25.7238C153.281 24.4787 154.17 23.5131 155.339 22.827C156.508 22.1409 157.829 21.8105 159.354 21.8105C161.539 21.8105 163.292 22.4712 164.665 23.818C166.037 25.1648 166.799 26.9435 166.977 29.2305L167.002 30.3232C167.002 32.788 166.316 34.7701 164.944 36.2693C163.572 37.7685 161.717 38.5055 159.379 38.5055C157.041 38.5055 155.212 37.7685 153.814 36.2693C152.417 34.7701 151.73 32.7626 151.73 30.1961V29.9928H151.756ZM156.076 30.2978C156.076 31.8224 156.355 32.9913 156.94 33.8045C157.524 34.6176 158.337 35.0242 159.405 35.0242C160.446 35.0242 161.26 34.6176 161.844 33.8299C162.428 33.0421 162.733 31.7462 162.733 29.9928C162.733 28.4936 162.428 27.3247 161.844 26.5115C161.26 25.673 160.446 25.2664 159.379 25.2664C158.337 25.2664 157.524 25.673 156.94 26.4861C156.355 27.2993 156.076 28.5698 156.076 30.2978Z" fill="#FFC629"/>
</svg>
