<svg width="168" height="54" viewBox="0 0 168 54" fill="none" xmlns="http://www.w3.org/2000/svg">
<path d="M2.74815 22.6325C4.30267 18.5242 7.80032 15.6372 11.8531 15.6372V39.3157C7.71704 39.3157 4.16387 36.3178 2.66488 32.0429H9.7157V30.4051H0V24.3258H9.7157V22.5215L2.74815 22.6325Z" fill="#FFC629"/>
<path d="M20.6561 15.6372L26.7353 32.8201L32.7868 15.6372H39.1992V39.3157H34.3136V32.8479L34.8132 21.6609L28.4286 39.3157H25.042L18.6574 21.6887L19.1571 32.8479V39.3157H14.2715V15.6372H20.6561Z" fill="#FFC629"/>
<path d="M51.2461 39.6498C48.6645 39.6498 46.5548 38.8448 44.9448 37.2625C43.3347 35.6802 42.502 33.5705 42.502 30.9334V30.4893C42.502 28.7127 42.8351 27.1304 43.529 25.7425C44.223 24.3545 45.1668 23.2719 46.4437 22.5224C47.7207 21.7729 49.1364 21.3843 50.7187 21.3843C53.1337 21.3843 55.0213 22.1338 56.4093 23.6605C57.7972 25.1873 58.4912 27.3247 58.4912 30.1284V32.0438H47.2765C47.4153 33.1819 47.8872 34.1257 48.6645 34.8197C49.4417 35.5137 50.3855 35.8745 51.5792 35.8745C53.3835 35.8745 54.7992 35.2083 55.8263 33.9036L58.1303 36.4852C57.4364 37.4846 56.4648 38.2618 55.2712 38.817C54.0775 39.3722 52.7173 39.6498 51.2461 39.6498ZM50.7187 25.1873C49.7748 25.1873 49.0254 25.4926 48.4424 26.1311C47.8595 26.7695 47.4986 27.6578 47.332 28.8515H53.8832V28.4629C53.8554 27.408 53.5778 26.603 53.0504 26.0478C52.523 25.4926 51.718 25.1873 50.7187 25.1873Z" fill="#FFC629"/>
<path d="M66.7889 17.3872V21.7176H69.7869V25.1598H66.7889V33.9316C66.7889 34.5701 66.9 35.042 67.1498 35.3196C67.3996 35.5972 67.8715 35.736 68.5933 35.736C69.1207 35.736 69.5648 35.7082 69.9812 35.625V39.1781C69.0652 39.4557 68.1214 39.5945 67.122 39.5945C63.8187 39.5945 62.1532 37.929 62.0699 34.5979V25.1875H59.4883V21.7176H62.0699V17.3872H66.7889Z" fill="#FFC629"/>
<path d="M82.3061 26.1307C81.6676 26.0474 81.1124 25.9919 80.6128 25.9919C78.8362 25.9919 77.6703 26.6026 77.1151 27.7962V39.3163H72.4238V21.717H76.8653L77.0041 23.8267C77.9479 22.2166 79.2526 21.4116 80.9181 21.4116C81.4455 21.4116 81.9175 21.4949 82.3894 21.6337L82.3061 26.1307Z" fill="#FFC629"/>
<path d="M84.5312 17.164C84.5312 16.47 84.7533 15.8871 85.2252 15.4152C85.6971 14.9433 86.3356 14.7212 87.1406 14.7212C87.9456 14.7212 88.5841 14.9433 89.056 15.4152C89.5279 15.8871 89.7777 16.4423 89.7777 17.164C89.7777 17.8857 89.5279 18.4687 89.056 18.9128C88.5841 19.357 87.9456 19.6068 87.1406 19.6068C86.3356 19.6068 85.7249 19.3847 85.2252 18.9128C84.7256 18.4409 84.5312 17.8857 84.5312 17.164ZM89.5279 39.3158H84.8088V21.7165H89.5279V39.3158Z" fill="#FFC629"/>
<path d="M100.714 35.8741C101.575 35.8741 102.296 35.6243 102.824 35.1524C103.351 34.6805 103.657 34.042 103.657 33.237H108.07C108.07 34.4307 107.737 35.5133 107.099 36.5126C106.46 37.5119 105.572 38.2614 104.462 38.8166C103.351 39.3718 102.13 39.6494 100.77 39.6494C98.2436 39.6494 96.2727 38.8444 94.8293 37.2621C93.3858 35.6798 92.6641 33.4313 92.6641 30.6277V30.3223C92.6641 27.6019 93.3858 25.4367 94.8293 23.8267C96.2727 22.2166 98.2436 21.4116 100.77 21.4116C102.963 21.4116 104.739 22.0501 106.072 23.2992C107.404 24.5484 108.07 26.214 108.098 28.2959H103.684C103.657 27.3798 103.379 26.6303 102.852 26.0752C102.324 25.52 101.602 25.2146 100.714 25.2146C99.6316 25.2146 98.7988 25.6032 98.2436 26.4083C97.6885 27.2133 97.4109 28.4902 97.4109 30.2945V30.7942C97.4109 32.5986 97.6885 33.9032 98.2436 34.7082C98.7433 35.4577 99.6038 35.8741 100.714 35.8741Z" fill="#FFC629"/>
<path d="M116.259 39.3157H111.373V15.6372H116.259V39.3157Z" fill="#FFC629"/>
<path d="M124.81 21.7174L124.949 23.7438C126.198 22.1615 127.891 21.3843 130.001 21.3843C131.861 21.3843 133.249 21.9395 134.165 23.0221C135.081 24.1047 135.553 25.7425 135.553 27.9354V39.3167H130.862V28.0742C130.862 27.0749 130.64 26.3532 130.223 25.909C129.807 25.4649 129.057 25.2428 128.058 25.2428C126.726 25.2428 125.754 25.798 125.088 26.9361V39.3444H120.396V21.7174H124.81Z" fill="#FFC629"/>
<path d="M140.41 39.3163V25.1592H137.801V21.717H140.41V20.218C140.41 18.2471 140.965 16.7204 142.103 15.61C143.242 14.4997 144.852 14 146.878 14C147.516 14 148.321 14.111 149.265 14.3331L149.21 17.9696C148.821 17.8585 148.349 17.8308 147.766 17.8308C145.99 17.8308 145.101 18.6635 145.101 20.3291V21.7448H148.599V25.1869H145.101V39.3441H140.41V39.3163Z" fill="#FFC629"/>
<path d="M150.346 30.3501C150.346 28.6012 150.679 27.0467 151.345 25.6865C152.012 24.3263 152.983 23.2715 154.26 22.522C155.537 21.7725 156.981 21.4116 158.646 21.4116C161.033 21.4116 162.949 22.1334 164.448 23.6046C165.947 25.0758 166.78 27.019 166.974 29.5173L167.002 30.7109C167.002 33.4036 166.252 35.5688 164.753 37.2066C163.254 38.8444 161.228 39.6494 158.674 39.6494C156.12 39.6494 154.121 38.8444 152.595 37.2066C151.068 35.5688 150.318 33.3758 150.318 30.5721V30.3501H150.346ZM155.037 30.6832C155.037 32.3487 155.343 33.6256 155.981 34.5139C156.62 35.4022 157.508 35.8464 158.674 35.8464C159.812 35.8464 160.7 35.4022 161.339 34.5417C161.977 33.6812 162.31 32.2654 162.31 30.3501C162.31 28.7123 161.977 27.4354 161.339 26.5471C160.7 25.631 159.812 25.1869 158.646 25.1869C157.508 25.1869 156.62 25.631 155.981 26.5193C155.343 27.4354 155.037 28.8233 155.037 30.6832Z" fill="#FFC629"/>
</svg>
