<svg width="167" height="54" viewBox="0 0 167 54" fill="none" xmlns="http://www.w3.org/2000/svg">
<path d="M24.9959 16.5474V39.64H21.1241V23.8296L13.8645 39.64H11.1599L3.90028 23.8296V39.64H0V16.5474H4.21344L12.5264 34.656L20.8394 16.5474H24.9959Z" fill="#FFC629"/>
<path d="M47.2614 31.9142H32.8844C32.9983 33.3817 33.5677 34.5446 34.5641 35.4307C35.5605 36.3167 36.7847 36.7597 38.2651 36.7597C40.3718 36.7597 41.8522 35.9014 42.7063 34.2123H46.9197C46.3503 35.9014 45.3255 37.2858 43.8166 38.338C42.3362 39.4179 40.4857 39.944 38.2651 39.944C36.4715 39.944 34.8488 39.5563 33.4253 38.7533C32.0019 37.9781 30.8916 36.8705 30.066 35.4307C29.2404 33.9908 28.8418 32.3572 28.8418 30.4743C28.8418 28.5915 29.2404 26.9301 30.009 25.518C30.8062 24.0782 31.888 22.9983 33.3115 22.223C34.7349 21.4477 36.3577 21.0601 38.2082 21.0601C39.9732 21.0601 41.5675 21.4477 42.9625 22.1953C44.3575 22.9429 45.4393 23.9951 46.208 25.3795C46.9767 26.7363 47.3752 28.3146 47.3752 30.0867C47.3752 30.7235 47.3468 31.3604 47.2614 31.9142ZM43.3326 28.8407C43.3041 27.4562 42.7917 26.321 41.7953 25.4903C40.7989 24.6596 39.5462 24.2166 38.0658 24.2166C36.7278 24.2166 35.5605 24.6319 34.621 25.4626C33.6531 26.2933 33.0837 27.4285 32.9129 28.8407H43.3326Z" fill="#FFC629"/>
<path d="M55.7423 24.4381V34.5723C55.7423 35.2645 55.9131 35.7629 56.2262 36.0398C56.5679 36.3444 57.1088 36.4828 57.9059 36.4828H60.2973V39.6393H57.2227C55.4576 39.6393 54.1195 39.2517 53.18 38.4487C52.2406 37.6457 51.7851 36.3444 51.7851 34.5723V24.4381H49.5645V21.3369H51.7851V16.7959H55.7138V21.3369H60.2973V24.4381H55.7423Z" fill="#FFC629"/>
<path d="M70.0899 21.8354C71.0294 21.3093 72.1682 21.0601 73.4493 21.0601V24.9919H72.4529C70.9155 24.9919 69.7768 25.3795 68.9796 26.1272C68.1825 26.8748 67.8124 28.1761 67.8124 30.059V39.6948H63.9121V21.3369H67.8124V23.9951C68.3818 23.0814 69.1504 22.3338 70.0899 21.8354Z" fill="#FFC629"/>
<path d="M77.2391 18.2082C76.7551 17.7375 76.5273 17.156 76.5273 16.4915C76.5273 15.8269 76.7551 15.2178 77.2391 14.7747C77.723 14.304 78.3209 14.0825 79.0042 14.0825C79.6874 14.0825 80.2568 14.304 80.7408 14.7747C81.2248 15.2455 81.4525 15.8269 81.4525 16.4915C81.4525 17.156 81.2248 17.7652 80.7408 18.2082C80.2568 18.6789 79.6874 18.9004 79.0042 18.9004C78.3209 18.9281 77.723 18.6789 77.2391 18.2082ZM80.9401 21.337V39.6395H77.0398V21.337H80.9401Z" fill="#FFC629"/>
<path d="M85.9477 25.518C86.7448 24.0782 87.8266 22.9983 89.2216 22.223C90.6166 21.4477 92.2109 21.0601 94.0044 21.0601C96.282 21.0601 98.1609 21.5861 99.6698 22.6383C101.179 23.6905 102.175 25.1857 102.688 27.1516H98.4741C98.1325 26.2379 97.5915 25.5457 96.8229 25.0196C96.0827 24.5212 95.1147 24.2443 93.976 24.2443C92.3817 24.2443 91.1006 24.7981 90.1611 25.8779C89.2216 26.9578 88.7376 28.5084 88.7376 30.4743C88.7376 32.4402 89.2216 33.9908 90.1611 35.0984C91.1006 36.206 92.3817 36.7597 93.976 36.7597C96.225 36.7597 97.7339 35.7906 98.4456 33.8801H102.659C102.118 35.7352 101.093 37.2304 99.5844 38.3103C98.0755 39.4179 96.225 39.944 93.976 39.944C92.1824 39.944 90.5881 39.5563 89.1931 38.7533C87.7982 37.9781 86.7163 36.8705 85.9192 35.4307C85.1221 33.9908 84.752 32.3572 84.752 30.4743C84.752 28.5915 85.1505 26.9301 85.9477 25.518Z" fill="#FFC629"/>
<path d="M110.432 16.5474V39.64H106.531V16.5474H110.432Z" fill="#FFC629"/>
<path d="M129.05 21.9469C130.217 22.5561 131.128 23.4421 131.811 24.6051C132.466 25.768 132.808 27.2079 132.808 28.8692V39.6679H128.936V29.423C128.936 27.7893 128.509 26.5156 127.683 25.6573C126.829 24.7712 125.691 24.3559 124.239 24.3559C122.787 24.3559 121.619 24.7989 120.765 25.6573C119.911 26.5433 119.484 27.7893 119.484 29.423V39.6679H115.584V21.3378H119.484V23.4421C120.111 22.6945 120.936 22.1131 121.933 21.6701C122.929 21.2547 123.982 21.0332 125.093 21.0332C126.545 21.0332 127.883 21.3378 129.05 21.9469Z" fill="#FFC629"/>
<path d="M145.619 24.4388H142.145V39.6677H138.217V24.4388H135.996V21.3376H138.217V20.0362C138.217 17.9318 138.786 16.4089 139.953 15.4398C141.092 14.4707 142.886 14 145.362 14V17.1565C144.167 17.1565 143.341 17.3781 142.857 17.7934C142.373 18.2364 142.145 18.984 142.145 20.0362V21.3376H145.619V24.4388Z" fill="#FFC629"/>
<path d="M152.425 38.781C151.001 38.0057 149.862 36.8982 149.037 35.4584C148.211 34.0185 147.812 32.3849 147.812 30.502C147.812 28.6469 148.24 26.9855 149.065 25.5457C149.919 24.1059 151.058 22.9983 152.51 22.223C153.962 21.4477 155.585 21.0601 157.407 21.0601C159.229 21.0601 160.823 21.4477 162.303 22.223C163.755 22.9983 164.922 24.1059 165.748 25.5457C166.574 26.9855 167.001 28.6469 167.001 30.502C167.001 32.3572 166.574 34.0185 165.691 35.4584C164.837 36.8982 163.641 38.0057 162.161 38.8087C160.681 39.584 159.029 39.9994 157.236 39.9994C155.471 39.944 153.876 39.5563 152.425 38.781ZM160.054 35.9568C160.937 35.486 161.649 34.7938 162.189 33.8524C162.73 32.911 163.015 31.8034 163.015 30.4743C163.015 29.1453 162.759 28.01 162.218 27.0963C161.705 26.1825 160.994 25.4903 160.14 25.0196C159.286 24.5489 158.346 24.3274 157.35 24.3274C156.353 24.3274 155.414 24.5489 154.56 25.0196C153.706 25.4903 153.022 26.1825 152.538 27.0963C152.026 28.01 151.798 29.1453 151.798 30.4743C151.798 32.4402 152.311 33.9631 153.364 35.043C154.389 36.1229 155.698 36.649 157.264 36.649C158.261 36.649 159.2 36.4275 160.054 35.9568Z" fill="#FFC629"/>
</svg>
