<svg width="167" height="54" viewBox="0 0 167 54" fill="none" xmlns="http://www.w3.org/2000/svg">
<path d="M114.447 9.15724C119.183 10.9484 122.492 14.9556 122.492 19.6308H95.2305C95.2305 14.8646 98.6913 10.7662 103.579 9.03581V17.1718H105.492V6H112.474V17.2021H114.569L114.447 9.15724Z" fill="#FFC629"/>
<path d="M6.95201 22.3027L13.6004 41.0944L20.2185 22.3027H27.2312V48.1982H21.8882V41.1248L22.4346 28.8904L15.4523 48.1982H11.779L4.79658 28.9208L5.34303 41.1248V48.1982H0V22.3027H6.95201Z" fill="#FFC629"/>
<path d="M40.4359 48.5621C37.6125 48.5621 35.3053 47.6817 33.5446 45.9513C31.7838 44.2209 30.873 41.9136 30.873 39.0296V38.5439C30.873 36.601 31.2373 34.8706 31.9963 33.3527C32.7552 31.8347 33.7874 30.6508 35.1839 29.8311C36.5804 29.0114 38.1286 28.5864 39.859 28.5864C42.5002 28.5864 44.5646 29.4061 46.0825 31.0758C47.6004 32.7455 48.3593 35.0831 48.3593 38.1492V40.2439H36.0946C36.2464 41.4886 36.7625 42.5208 37.6125 43.2798C38.4626 44.0387 39.4948 44.4334 40.8002 44.4334C42.7734 44.4334 44.3217 43.7048 45.4449 42.2779L47.9647 45.1012C47.2057 46.1941 46.1432 47.0442 44.8378 47.6513C43.5324 48.2585 42.0145 48.5621 40.4359 48.5621ZM39.8287 32.7455C38.7965 32.7455 37.9768 33.0794 37.3393 33.7777C36.7018 34.4759 36.3071 35.4474 36.125 36.7528H43.2895V36.3277C43.2592 35.1741 42.9556 34.2938 42.3788 33.6866C41.802 33.0794 40.9216 32.7455 39.8287 32.7455Z" fill="#FFC629"/>
<path d="M57.4041 24.2148V28.9507H60.6828V32.7151H57.4041V42.3083C57.4041 43.0065 57.5255 43.5226 57.7988 43.8262C58.072 44.1298 58.5881 44.2816 59.3774 44.2816C59.9542 44.2816 60.4399 44.2512 60.8953 44.1601V48.046C59.8935 48.3495 58.8613 48.5013 57.7684 48.5013C54.1558 48.5013 52.3343 46.6799 52.2432 43.0369V32.7151H49.4199V28.9507H52.2432V24.2148H57.4041Z" fill="#FFC629"/>
<path d="M74.3758 33.7781C73.6776 33.687 73.0704 33.6263 72.524 33.6263C70.5811 33.6263 69.306 34.2942 68.6989 35.5996V48.1982H63.5684V28.9511H68.4257L68.5774 31.2583C69.6096 29.4976 71.0365 28.6172 72.8579 28.6172C73.4347 28.6172 73.9508 28.7083 74.4669 28.8601L74.3758 33.7781Z" fill="#FFC629"/>
<path d="M76.8086 23.9723C76.8086 23.2133 77.0515 22.5758 77.5675 22.0597C78.0836 21.5436 78.7819 21.3008 79.6623 21.3008C80.5426 21.3008 81.2409 21.5436 81.757 22.0597C82.2731 22.5758 82.5463 23.183 82.5463 23.9723C82.5463 24.7616 82.2731 25.3991 81.757 25.8849C81.2409 26.3706 80.5426 26.6438 79.6623 26.6438C78.7819 26.6438 78.114 26.4009 77.5675 25.8849C77.0211 25.3688 76.8086 24.7616 76.8086 23.9723ZM82.2731 48.1981H77.1122V28.951H82.2731V48.1981Z" fill="#FFC629"/>
<path d="M94.5061 44.403C95.4472 44.403 96.2365 44.1298 96.8133 43.6137C97.3901 43.0976 97.724 42.3994 97.724 41.519H102.551C102.551 42.8244 102.187 44.0083 101.488 45.1012C100.79 46.1941 99.8188 47.0138 98.6044 47.621C97.3901 48.2281 96.0544 48.5317 94.5668 48.5317C91.8042 48.5317 89.6488 47.6513 88.0702 45.9209C86.4915 44.1905 85.6719 41.7618 85.6719 38.6653V38.3314C85.6719 35.3563 86.4612 32.9884 88.0398 31.2276C89.6184 29.4668 91.7739 28.5864 94.5364 28.5864C96.9347 28.5864 98.8777 29.2847 100.335 30.6508C101.792 32.0169 102.521 33.8384 102.551 36.1152H97.724C97.6937 35.1134 97.3901 34.2938 96.8133 33.6866C96.2365 33.0794 95.4472 32.7455 94.4757 32.7455C93.2918 32.7455 92.381 33.1705 91.7739 34.0509C91.1667 34.9313 90.8631 36.3277 90.8631 38.301V38.8475C90.8631 40.8207 91.1667 42.2476 91.7739 43.128C92.3507 43.978 93.2918 44.403 94.5061 44.403Z" fill="#FFC629"/>
<path d="M111.536 48.1982H106.193V22.3027H111.536V48.1982Z" fill="#FFC629"/>
<path d="M120.858 28.9507L121.01 31.1669C122.376 29.4365 124.228 28.5864 126.535 28.5864C128.569 28.5864 130.087 29.1936 131.089 30.3776C132.091 31.5615 132.607 33.3527 132.607 35.7509V48.1978H127.476V35.8724C127.476 34.7795 127.233 33.9902 126.778 33.5044C126.323 33.0187 125.503 32.7758 124.41 32.7758C122.953 32.7758 121.89 33.383 121.162 34.6277V48.1978H116.031V28.9507H120.858Z" fill="#FFC629"/>
<path d="M137.947 48.1979V32.7153H135.094V28.9509H137.947V27.3115C137.947 25.1561 138.555 23.4864 139.799 22.2721C141.044 21.0578 142.774 20.481 144.99 20.481C145.689 20.481 146.569 20.6024 147.601 20.8453L147.541 24.8222C147.116 24.7007 146.599 24.6704 145.962 24.6704C144.019 24.6704 143.048 25.5811 143.048 27.4026V28.9509H146.873V32.7153H143.048V48.1979H137.947Z" fill="#FFC629"/>
<path d="M148.784 38.3925C148.784 36.4799 149.149 34.7799 149.877 33.2923C150.606 31.8048 151.668 30.6512 153.065 29.8315C154.461 29.0118 156.04 28.6172 157.861 28.6172C160.472 28.6172 162.567 29.4065 164.206 31.0155C165.846 32.6245 166.756 34.7495 166.969 37.4818L166.999 38.7872C166.999 41.7319 166.179 44.0998 164.54 45.891C162.901 47.6821 160.685 48.5625 157.892 48.5625C155.099 48.5625 152.913 47.6821 151.243 45.891C149.574 44.0998 148.754 41.7015 148.754 38.6354V38.3925H148.784ZM153.915 38.7568C153.915 40.5783 154.249 41.9748 154.947 42.9462C155.645 43.9177 156.617 44.4034 157.892 44.4034C159.136 44.4034 160.108 43.9177 160.806 42.9766C161.504 42.0355 161.869 40.4872 161.869 38.3925C161.869 36.6014 161.504 35.2049 160.806 34.2334C160.108 33.2316 159.136 32.7459 157.861 32.7459C156.617 32.7459 155.645 33.2316 154.947 34.2031C154.279 35.1745 153.915 36.6924 153.915 38.7568Z" fill="#FFC629"/>
</svg>
