<svg width="168" height="54" viewBox="0 0 168 54" fill="none" xmlns="http://www.w3.org/2000/svg">
<path d="M19.2133 8.18703C23.9483 9.97785 27.2568 13.9844 27.2568 18.6587H0C0 13.8933 3.46021 9.79573 8.347 8.06562V16.2002H10.2592V5H17.2404V16.2002H19.3347L19.2133 8.18703Z" fill="white"/>
<path d="M6.98113 21.3296L13.6284 40.1179L20.2453 21.3296H27.2568V47.2205H21.9147V40.1483L22.461 27.9161L15.4799 47.2205H11.7769L4.79573 27.9465L5.34208 40.1483V47.2205H0V21.3296H6.98113Z" fill="#FFC629"/>
<path d="M40.4302 47.5839C37.6074 47.5839 35.3006 46.7037 33.5402 44.9736C31.7797 43.2435 30.8691 40.9367 30.8691 38.0532V37.5675C30.8691 35.6249 31.2334 33.8948 31.9922 32.3772C32.751 30.8596 33.783 29.6758 35.1792 28.8563C36.5755 28.0368 38.1234 27.6118 39.8535 27.6118C42.4942 27.6118 44.5582 28.4313 46.0759 30.1007C47.5935 31.7701 48.3523 34.1073 48.3523 37.1729V39.2673H36.0898C36.2416 40.5117 36.7576 41.5437 37.6074 42.3025C38.4573 43.0614 39.4893 43.4559 40.7945 43.4559C42.7674 43.4559 44.3154 42.7275 45.4385 41.3009L47.9577 44.1237C47.1989 45.2164 46.1366 46.0663 44.8314 46.6733C43.5262 47.2804 42.0389 47.5839 40.4302 47.5839ZM39.8535 31.7701C38.8216 31.7701 38.002 32.104 37.3646 32.8021C36.7272 33.5002 36.3326 34.4715 36.1505 35.7767H43.3138V35.3518C43.2834 34.1984 42.9799 33.3181 42.4032 32.7111C41.8265 32.104 40.9462 31.7701 39.8535 31.7701Z" fill="#FFC629"/>
<path d="M57.4242 23.2418V27.9768H60.7023V31.7405H57.4242V41.332C57.4242 42.0301 57.5456 42.5461 57.8188 42.8496C58.0919 43.1532 58.6383 43.3353 59.3971 43.3353C59.9738 43.3353 60.4594 43.3049 60.9147 43.2139V47.099C59.9131 47.4025 58.8811 47.5543 57.7884 47.5543C54.1764 47.5543 52.3553 45.7331 52.2642 42.0908V31.7102H49.4414V27.9464H52.2642V23.2114H57.4242V23.2418Z" fill="#FFC629"/>
<path d="M74.3915 32.803C73.6934 32.712 73.0863 32.6513 72.54 32.6513C70.5974 32.6513 69.3226 33.319 68.7156 34.6242V47.2206H63.5859V27.9769H68.4424L68.5941 30.2838C69.6261 28.5233 71.0527 27.6431 72.8739 27.6431C73.4506 27.6431 73.9666 27.7341 74.4826 27.8859L74.3915 32.803Z" fill="#FFC629"/>
<path d="M76.8242 22.9987C76.8242 22.2399 77.067 21.6025 77.583 21.0865C78.099 20.5705 78.7971 20.3276 79.6774 20.3276C80.5576 20.3276 81.2557 20.5705 81.7717 21.0865C82.2877 21.6025 82.5609 22.2095 82.5609 22.9987C82.5609 23.7878 82.2877 24.4253 81.7717 24.9109C81.2557 25.3965 80.5576 25.6697 79.6774 25.6697C78.7971 25.6697 78.1294 25.4269 77.583 24.9109C77.0367 24.3949 76.8242 23.7878 76.8242 22.9987ZM82.2877 47.2202H77.1277V27.9765H82.2877V47.2202Z" fill="#FFC629"/>
<path d="M94.5201 43.4256C95.4611 43.4256 96.2503 43.1524 96.827 42.6364C97.4037 42.1204 97.7375 41.4223 97.7375 40.5421H102.564C102.564 41.8472 102.199 43.031 101.501 44.1237C100.803 45.2164 99.8319 46.0359 98.6178 46.643C97.4037 47.25 96.0681 47.5536 94.5809 47.5536C91.8188 47.5536 89.6637 46.6733 88.0854 44.9432C86.507 43.2131 85.6875 40.7849 85.6875 37.6889V37.355C85.6875 34.3805 86.4767 32.013 88.055 30.2525C89.6334 28.492 91.7884 27.6118 94.5505 27.6118C96.9484 27.6118 98.8909 28.3099 100.348 29.6758C101.805 31.0417 102.533 32.8628 102.564 35.1393H97.7375C97.7072 34.1377 97.4037 33.3181 96.827 32.7111C96.2503 32.104 95.4611 31.7701 94.4898 31.7701C93.306 31.7701 92.3955 32.1951 91.7884 33.0753C91.1814 33.9555 90.8778 35.3518 90.8778 37.3247V37.871C90.8778 39.844 91.1814 41.2705 91.7884 42.1508C92.3651 43.0007 93.306 43.4256 94.5201 43.4256Z" fill="#FFC629"/>
<path d="M111.518 47.2205H106.176V21.3296H111.518V47.2205Z" fill="#FFC629"/>
<path d="M120.867 27.9761L121.019 30.1918C122.385 28.4617 124.236 27.6118 126.543 27.6118C128.577 27.6118 130.094 28.2189 131.096 29.4026C132.098 30.5864 132.614 32.3772 132.614 34.7751V47.2197H127.484V34.9268C127.484 33.8341 127.241 33.045 126.786 32.5593C126.331 32.0737 125.511 31.8308 124.418 31.8308C122.961 31.8308 121.899 32.4379 121.171 33.6824V47.25H116.041V28.0064H120.867V27.9761Z" fill="#FFC629"/>
<path d="M137.923 47.2199V31.74H135.07V27.9762H137.923V26.3372C137.923 24.1821 138.531 22.5127 139.775 21.2986C141.019 20.0845 142.75 19.5078 144.965 19.5078C145.663 19.5078 146.544 19.6292 147.576 19.872L147.515 23.8483C147.09 23.7268 146.574 23.6965 145.937 23.6965C143.994 23.6965 143.023 24.6071 143.023 26.4282V27.9762H146.847V31.74H143.023V47.2199H137.923Z" fill="#FFC629"/>
<path d="M148.79 37.4166C148.79 35.5044 149.154 33.8047 149.883 32.3174C150.611 30.8301 151.674 29.6767 153.07 28.8572C154.466 28.0377 156.044 27.6431 157.866 27.6431C160.476 27.6431 162.57 28.4322 164.209 30.0409C165.848 31.6496 166.759 33.7743 166.971 36.5061L167.002 37.8112C167.002 40.7554 166.182 43.123 164.543 44.9138C162.904 46.7046 160.688 47.5848 157.896 47.5848C155.103 47.5848 152.918 46.7046 151.249 44.9138C149.579 43.123 148.76 40.7251 148.76 37.6595V37.4166H148.79ZM153.92 37.7809C153.92 39.602 154.254 40.9983 154.952 41.9696C155.65 42.9408 156.621 43.4265 157.896 43.4265C159.14 43.4265 160.112 42.9408 160.81 41.9999C161.508 41.059 161.872 39.511 161.872 37.4166C161.872 35.6258 161.508 34.2296 160.81 33.2583C160.112 32.2567 159.14 31.771 157.866 31.771C156.621 31.771 155.65 32.2567 154.952 33.228C154.254 34.1993 153.92 35.7169 153.92 37.7809Z" fill="#FFC629"/>
</svg>
